<?xml version="1.0" standalone="no"?><!DOCTYPE svg PUBLIC "-//W3C//DTD SVG 1.1//EN" "http://www.w3.org/Graphics/SVG/1.1/DTD/svg11.dtd"><svg class="icon" width="200px" height="200.00px" viewBox="0 0 1024 1024" version="1.1" xmlns="http://www.w3.org/2000/svg"><path fill="#f4ea2a" d="M54.583 56.629V967.37h914.835V56.63H54.583zM881.8 873.569v19.789H773.427l17.07-0.236H602.761v-0.007h-19.284l-30.402 0.244H142.143v-19.79s-8.922-110.538 153.861-138.834c0 0 123.92-16.73 132.59-50.805 0 0 4.735-3.79 1.243-43.369-7.433-84.27-62.581-123.926-84.88-156.141-22.308-32.222-24.165-69.396-24.165-69.396 0-9.291 3.893-12.695 10.356-18.664 8-7.38 5.601-15.227 4.07-23.53-5.807-31.538-6.32-82.207-0.792-113.945 1.237-37.795 35.93-68.153 35.93-68.153 6.514-5.52 13.036-11.601 17.606-18.89 1.277-2.028 2.452-4.205 3.144-6.512 2.613-8.7-6.235-15.087-4.454-24.344 1.596-8.343 15.903-8.754 24.548-9.21 19.478-1.025 39.06-1.794 58.501-0.3 145.551 11.155 193.41 64.738 193.41 64.738 11.326 13.569 18.789 30.16 23.292 47.167 1.334 5.085 2.491 10.276 3.116 15.505 4.535 26.067 4.52 53.251 3.11 79.593-0.67 12.56-2.128 24.922-3.98 37.354-0.96 6.502-0.464 12.557 3.877 17.753 3.637 4.345 7.793 7.384 9.575 13.098 0.835 2.67 1.05 5.554 1.05 8.341 0 0-1.858 37.175-24.166 69.398-22.308 32.219-77.446 71.866-84.885 156.14-3.491 39.573 1.239 43.364 1.239 43.364 8.678 34.083 132.594 50.807 132.594 50.807 164.61 30.528 153.868 138.836 153.868 138.836z" /></svg>